<svg width="616" height="167" viewBox="0 0 616 167" fill="none" xmlns="http://www.w3.org/2000/svg">
<mask id="mask0_225_73" style="mask-type:luminance" maskUnits="userSpaceOnUse" x="0" y="0" width="616" height="167">
<path d="M615.212 0H0V167H615.212V0Z" fill="white"/>
</mask>
<g mask="url(#mask0_225_73)">
<path d="M307.547 58.1999C307.547 56.161 307.547 54.0604 307.547 52.0216C307.547 49.7974 307.547 47.6349 307.547 45.4725L427.557 49.4267L427.674 58.1999H414.333C413.158 79.0826 413.158 101.572 408.926 122.022C406.105 135.676 401.698 150.133 388.827 159.463C373.253 170.707 355.504 166.259 354.387 165.95C333.171 160.266 325.296 139.321 324.59 137.344L342.104 133.699C349.157 148.589 354.681 159.71 373.194 154.643C398.054 147.847 398.348 81.4921 397.525 60.3623C397.349 59.8062 393.529 58.2617 393.235 58.2617H307.664L307.547 58.1999Z" fill="white"/>
<path d="M360.911 32.6213C362.145 19.5232 369.962 6.61053 382.069 1.91501C396.056 -3.46013 395.88 2.77997 390.649 14.7659C385.83 25.8251 372.607 35.7722 360.911 32.6213Z" fill="white"/>
<path d="M338.931 118.624C337.932 121.775 324.415 122.022 320.888 122.022L319.772 76.1788L319.654 72.2864V71.6068H336.698V76.1788L338.931 118.624Z" fill="white"/>
<path d="M322.828 76.117H319.654V72.2246L322.828 76.117Z" fill="#E17230"/>
<path d="M88.5675 112.94C87.6272 108.492 87.3334 104.723 87.2158 102.005V67.0972H106.022C105.787 76.1175 105.729 85.4468 105.846 95.085C105.905 101.202 106.081 107.256 106.316 113.126C106.551 115.226 107.609 122.64 113.721 128.633C120.01 134.812 127.356 135.306 129.531 135.429C131.999 135.553 139.052 135.924 144.576 131.043C146.398 129.436 148.396 126.903 150.629 120.54C154.685 108.677 154.508 97.6799 154.038 81.4927C153.979 78.7742 153.627 68.6417 153.627 68.6417C159.386 68.7035 165.146 68.7653 170.905 68.8271C170.67 82.543 170.435 96.2588 170.2 109.975C169.906 113.682 168.848 121.405 163.735 129.066C162.913 130.301 158.857 136.233 151.393 140.743C137.406 149.207 119.305 147.848 106.61 139.94C103.965 138.271 98.3823 134.75 94.092 127.83C90.5658 122.146 89.3316 116.462 88.5675 112.879" fill="white"/>
<path d="M438.842 112.94C437.902 108.492 437.608 104.723 437.49 102.005V67.0972H456.297C456.062 76.1175 456.003 85.4468 456.121 95.085C456.179 101.202 456.356 107.256 456.591 113.126C456.826 115.226 457.884 122.64 463.996 128.633C470.284 134.812 477.631 135.306 479.805 135.429C482.274 135.553 489.326 135.924 494.85 131.043C496.672 129.436 498.671 126.903 500.904 120.54C504.959 108.677 504.783 97.6799 504.313 81.4927C504.254 78.7742 503.901 68.6417 503.901 68.6417C509.661 68.7035 515.42 68.7653 521.18 68.8271C520.945 82.543 520.71 96.2588 520.475 109.975C520.181 113.682 519.123 121.405 514.01 129.066C513.187 130.301 509.132 136.233 501.668 140.743C487.68 149.207 469.579 147.848 456.885 139.94C454.24 138.271 448.657 134.75 444.366 127.83C440.84 122.146 439.606 116.462 438.842 112.879" fill="white"/>
<path d="M556.56 141.793C555.561 140.743 554.503 139.507 553.387 138.457H553.974C554.797 139.631 555.679 140.743 556.502 141.793" fill="#EE7822"/>
<path d="M68.41 149.639C62.004 148.651 52.7182 153.346 54.7164 144.264C15.4576 157.053 -15.1032 125.296 7.81737 85.2609C16.9856 69.3209 37.4378 63.7604 54.7164 63.6986C57.0085 76.0553 50.4262 71.6686 41.6105 75.9317C30.8555 81.1215 22.8627 90.2654 20.982 102.622C17.2795 127.026 30.6204 137.962 53.0121 135.367C51.7779 124.864 58.0076 114.546 44.4315 117.45C44.6666 116.153 44.0789 110.283 44.4315 110.283H68.3512V149.701L68.41 149.639Z" fill="white"/>
<path d="M283.629 66.541V148.898C281.454 148.898 278.222 148.898 274.284 148.898C270.17 148.898 264.94 148.713 264.94 148.713C264.94 153.594 264.058 95.4556 263.823 92.181C263.823 91.7486 263.764 90.9454 263.647 89.8951C263.47 89.7097 263.176 89.5244 262.765 89.4008C260.414 88.8448 258.063 93.6021 253.244 101.016C246.192 111.828 242.665 117.265 242.607 117.45C241.843 119.427 240.961 122.331 238.434 123.505C236.377 124.494 234.085 123.938 232.439 123.32C229.383 118.81 226.033 114.114 222.448 109.357C219.686 105.712 216.865 102.19 214.162 98.9154C209.754 92.49 206.933 89.5862 205.757 90.204C205.346 90.4511 205.111 91.1307 205.111 92.2428C205.111 110.531 205.17 128.818 205.228 147.168C202.819 146.921 200.233 146.736 197.471 146.674C194.062 146.612 190.947 146.674 188.067 146.921V67.2206C188.067 63.9461 199.528 63.8226 202.29 64.8729C205.522 66.0468 208.167 74.1403 210.224 77.1059C218.217 88.5976 226.21 100.213 234.966 111.025C238.023 111.457 253.538 85.4467 256.359 80.6894C259.709 75.9321 263.118 71.113 266.585 66.3557C272.227 66.1085 277.987 66.541 283.687 66.3557" fill="white"/>
<path d="M566.551 140.681C564.376 144.449 562.202 144.264 560.027 140.001C562.202 140.125 564.376 140.434 566.551 140.681Z" fill="#E07F3E"/>
<path d="M615.037 128.633C612.392 152.667 570.547 151.802 553.798 149.207C552.622 149.207 549.919 149.021 547.509 147.106C544.159 144.511 543.807 140.804 543.807 140.248C544.571 139.692 545.746 138.889 547.392 138.395C549.86 137.653 552.093 138.024 553.386 138.395C553.504 138.395 553.621 138.457 553.739 138.518C553.915 138.518 554.033 138.642 554.209 138.704C556.149 139.321 558.088 139.754 560.027 140.001C562.143 140.248 564.318 140.248 566.551 140.001C568.961 139.754 571.429 139.198 573.956 138.395C580.95 135.862 589.883 131.66 588.884 121.651C587.238 104.908 549.625 114.485 546.628 88.9682C543.983 66.6026 574.426 62.1543 590.118 63.2046C594.114 63.4517 613.685 65.923 608.102 72.1014C605.281 75.1905 567.139 70.0007 567.197 89.0917C567.315 111.704 618.269 99.2242 614.978 128.571" fill="white"/>
<path d="M556.913 141.792C556.913 141.792 556.913 141.792 556.913 141.854C555.855 140.804 554.856 139.692 553.798 138.518C555.032 139.692 556.09 140.804 556.971 141.792" fill="#E07F3E"/>
</g>
</svg>
